<mxfile host="app.diagrams.net" modified="2021-09-04T19:49:20.227Z" agent="5.0 (Windows NT 10.0; Win64; x64) AppleWebKit/537.36 (KHTML, like Gecko) Chrome/93.0.4577.63 Safari/537.36" etag="zmVkMF3JkVrQ_udtT4MB" version="15.0.6" type="github">
  <diagram id="C5RBs43oDa-KdzZeNtuy" name="Page-1">
    <mxGraphModel dx="1422" dy="772" grid="1" gridSize="10" guides="1" tooltips="1" connect="1" arrows="1" fold="1" page="1" pageScale="1" pageWidth="827" pageHeight="1169" math="0" shadow="0">
      <root>
        <mxCell id="WIyWlLk6GJQsqaUBKTNV-0" />
        <mxCell id="WIyWlLk6GJQsqaUBKTNV-1" parent="WIyWlLk6GJQsqaUBKTNV-0" />
        <mxCell id="lX6z0dlG5qseJ-_prrLL-1" style="edgeStyle=orthogonalEdgeStyle;rounded=0;orthogonalLoop=1;jettySize=auto;html=1;" edge="1" parent="WIyWlLk6GJQsqaUBKTNV-1">
          <mxGeometry relative="1" as="geometry">
            <mxPoint x="90.5" y="320" as="targetPoint" />
            <mxPoint x="90" y="270" as="sourcePoint" />
            <Array as="points">
              <mxPoint x="90.5" y="280" />
              <mxPoint x="90.5" y="280" />
            </Array>
          </mxGeometry>
        </mxCell>
        <mxCell id="UBO7siHFTKgS_53xjMgw-1" value="ARTÍCULO = ID" style="swimlane;fontStyle=0;childLayout=stackLayout;horizontal=1;startSize=26;horizontalStack=0;resizeParent=1;resizeParentMax=0;resizeLast=0;collapsible=1;marginBottom=0;" parent="WIyWlLk6GJQsqaUBKTNV-1" vertex="1">
          <mxGeometry x="10" y="10" width="180" height="260" as="geometry" />
        </mxCell>
        <mxCell id="UBO7siHFTKgS_53xjMgw-2" value="Nombre" style="text;align=left;verticalAlign=top;spacingLeft=4;spacingRight=4;overflow=hidden;rotatable=0;points=[[0,0.5],[1,0.5]];portConstraint=eastwest;fillColor=#e3c800;strokeColor=#B09500;fontColor=#000000;" parent="UBO7siHFTKgS_53xjMgw-1" vertex="1">
          <mxGeometry y="26" width="180" height="26" as="geometry" />
        </mxCell>
        <mxCell id="UBO7siHFTKgS_53xjMgw-3" value="Descripción" style="text;strokeColor=#BD7000;fillColor=#f0a30a;align=left;verticalAlign=top;spacingLeft=4;spacingRight=4;overflow=hidden;rotatable=0;points=[[0,0.5],[1,0.5]];portConstraint=eastwest;fontColor=#000000;" parent="UBO7siHFTKgS_53xjMgw-1" vertex="1">
          <mxGeometry y="52" width="180" height="26" as="geometry" />
        </mxCell>
        <mxCell id="UBO7siHFTKgS_53xjMgw-4" value="Categoría&#xa;" style="text;strokeColor=#001DBC;fillColor=#0050ef;align=left;verticalAlign=top;spacingLeft=4;spacingRight=4;overflow=hidden;rotatable=0;points=[[0,0.5],[1,0.5]];portConstraint=eastwest;fontColor=#ffffff;" parent="UBO7siHFTKgS_53xjMgw-1" vertex="1">
          <mxGeometry y="78" width="180" height="26" as="geometry" />
        </mxCell>
        <mxCell id="UBO7siHFTKgS_53xjMgw-5" value="Precio" style="text;strokeColor=#2D7600;fillColor=#60a917;align=left;verticalAlign=top;spacingLeft=4;spacingRight=4;overflow=hidden;rotatable=0;points=[[0,0.5],[1,0.5]];portConstraint=eastwest;fontColor=#ffffff;" parent="UBO7siHFTKgS_53xjMgw-1" vertex="1">
          <mxGeometry y="104" width="180" height="26" as="geometry" />
        </mxCell>
        <mxCell id="UBO7siHFTKgS_53xjMgw-6" value="Moneda " style="text;strokeColor=#005700;fillColor=#008a00;align=left;verticalAlign=top;spacingLeft=4;spacingRight=4;overflow=hidden;rotatable=0;points=[[0,0.5],[1,0.5]];portConstraint=eastwest;fontColor=#ffffff;" parent="UBO7siHFTKgS_53xjMgw-1" vertex="1">
          <mxGeometry y="130" width="180" height="26" as="geometry" />
        </mxCell>
        <mxCell id="UBO7siHFTKgS_53xjMgw-7" value="Cantidad de comprados" style="text;strokeColor=#A50040;fillColor=#d80073;align=left;verticalAlign=top;spacingLeft=4;spacingRight=4;overflow=hidden;rotatable=0;points=[[0,0.5],[1,0.5]];portConstraint=eastwest;fontColor=#ffffff;" parent="UBO7siHFTKgS_53xjMgw-1" vertex="1">
          <mxGeometry y="156" width="180" height="26" as="geometry" />
        </mxCell>
        <mxCell id="UBO7siHFTKgS_53xjMgw-17" value="Imágenes" style="text;strokeColor=#006EAF;fillColor=#1ba1e2;align=left;verticalAlign=top;spacingLeft=4;spacingRight=4;overflow=hidden;rotatable=0;points=[[0,0.5],[1,0.5]];portConstraint=eastwest;fontColor=#ffffff;" parent="UBO7siHFTKgS_53xjMgw-1" vertex="1">
          <mxGeometry y="182" width="180" height="26" as="geometry" />
        </mxCell>
        <mxCell id="UBO7siHFTKgS_53xjMgw-18" value="Productos relacionados" style="text;strokeColor=#6F0000;fillColor=#a20025;align=left;verticalAlign=top;spacingLeft=4;spacingRight=4;overflow=hidden;rotatable=0;points=[[0,0.5],[1,0.5]];portConstraint=eastwest;fontColor=#ffffff;" parent="UBO7siHFTKgS_53xjMgw-1" vertex="1">
          <mxGeometry y="208" width="180" height="26" as="geometry" />
        </mxCell>
        <mxCell id="UBO7siHFTKgS_53xjMgw-19" value="Puntuaciones y comentarios" style="text;strokeColor=#3700CC;fillColor=#6a00ff;align=left;verticalAlign=top;spacingLeft=4;spacingRight=4;overflow=hidden;rotatable=0;points=[[0,0.5],[1,0.5]];portConstraint=eastwest;fontColor=#ffffff;" parent="UBO7siHFTKgS_53xjMgw-1" vertex="1">
          <mxGeometry y="234" width="180" height="26" as="geometry" />
        </mxCell>
        <mxCell id="lX6z0dlG5qseJ-_prrLL-0" value="&lt;p style=&quot;margin: 0px ; margin-top: 4px ; text-align: center ; text-decoration: underline&quot;&gt;&lt;/p&gt;&lt;p style=&quot;margin: 0px ; margin-left: 8px&quot;&gt;&lt;b&gt;PREGUNTAS =&amp;gt; ARTICULO&lt;/b&gt;&lt;/p&gt;&lt;p style=&quot;margin: 0px ; margin-left: 8px&quot;&gt;&lt;br&gt;&lt;/p&gt;&lt;p style=&quot;margin: 0px ; margin-left: 8px&quot;&gt;Pregunta 1&lt;/p&gt;&lt;p style=&quot;margin: 0px ; margin-left: 8px&quot;&gt;&lt;br&gt;&lt;/p&gt;&lt;p style=&quot;margin: 0px ; margin-left: 8px&quot;&gt;Pregunta 2&lt;/p&gt;&lt;p style=&quot;margin: 0px ; margin-left: 8px&quot;&gt;&lt;br&gt;&lt;/p&gt;&lt;p style=&quot;margin: 0px ; margin-left: 8px&quot;&gt;Pregunta 3&lt;/p&gt;&lt;p style=&quot;margin: 0px ; margin-left: 8px&quot;&gt;&lt;br&gt;&lt;/p&gt;&lt;p style=&quot;margin: 0px ; margin-left: 8px&quot;&gt;(...)&lt;/p&gt;&lt;p style=&quot;margin: 0px ; margin-left: 8px&quot;&gt;&lt;br&gt;&lt;/p&gt;&lt;p style=&quot;margin: 0px ; margin-left: 8px&quot;&gt;Pregunta X&lt;/p&gt;" style="verticalAlign=top;align=left;overflow=fill;fontSize=12;fontFamily=Helvetica;html=1;fillColor=#f5f5f5;strokeColor=#666666;gradientColor=#b3b3b3;" vertex="1" parent="WIyWlLk6GJQsqaUBKTNV-1">
          <mxGeometry x="10" y="330" width="180" height="180" as="geometry" />
        </mxCell>
        <mxCell id="lX6z0dlG5qseJ-_prrLL-23" value="" style="edgeStyle=orthogonalEdgeStyle;rounded=0;orthogonalLoop=1;jettySize=auto;html=1;" edge="1" parent="WIyWlLk6GJQsqaUBKTNV-1" source="lX6z0dlG5qseJ-_prrLL-7">
          <mxGeometry relative="1" as="geometry">
            <mxPoint x="445" y="230" as="targetPoint" />
          </mxGeometry>
        </mxCell>
        <mxCell id="lX6z0dlG5qseJ-_prrLL-7" value="&lt;p style=&quot;margin: 0px ; margin-top: 4px ; text-align: center ; text-decoration: underline&quot;&gt;&lt;b&gt;LISTADO DE CATEGORÍAS&lt;/b&gt;&lt;/p&gt;&lt;hr&gt;&lt;p style=&quot;margin: 0px ; margin-left: 8px&quot;&gt;&lt;span style=&quot;background-color: rgb(5 , 38 , 255)&quot;&gt;&lt;font color=&quot;#ebebeb&quot;&gt;Autos&lt;/font&gt;&lt;/span&gt;&lt;/p&gt;&lt;p style=&quot;margin: 0px ; margin-left: 8px&quot;&gt;&lt;span style=&quot;background-color: rgb(5 , 38 , 255)&quot;&gt;&lt;font color=&quot;#ebebeb&quot;&gt;Celulares&lt;/font&gt;&lt;/span&gt;&lt;/p&gt;&lt;p style=&quot;margin: 0px ; margin-left: 8px&quot;&gt;&lt;span style=&quot;background-color: rgb(5 , 38 , 255)&quot;&gt;&lt;font color=&quot;#ebebeb&quot;&gt;Computadoras&lt;/font&gt;&lt;/span&gt;&lt;/p&gt;&lt;p style=&quot;margin: 0px ; margin-left: 8px&quot;&gt;&lt;span style=&quot;background-color: rgb(5 , 38 , 255)&quot;&gt;&lt;font color=&quot;#ebebeb&quot;&gt;Deporte&lt;/font&gt;&lt;/span&gt;&lt;/p&gt;&lt;p style=&quot;margin: 0px ; margin-left: 8px&quot;&gt;&lt;span style=&quot;background-color: rgb(5 , 38 , 255)&quot;&gt;&lt;font color=&quot;#ebebeb&quot;&gt;Electrodomésticos&lt;/font&gt;&lt;/span&gt;&lt;/p&gt;&lt;p style=&quot;margin: 0px ; margin-left: 8px&quot;&gt;&lt;span style=&quot;background-color: rgb(5 , 38 , 255)&quot;&gt;&lt;font color=&quot;#ebebeb&quot;&gt;Herramientas&lt;/font&gt;&lt;/span&gt;&lt;/p&gt;&lt;p style=&quot;margin: 0px ; margin-left: 8px&quot;&gt;&lt;span style=&quot;background-color: rgb(5 , 38 , 255)&quot;&gt;&lt;font color=&quot;#ebebeb&quot;&gt;Muebles&lt;/font&gt;&lt;/span&gt;&lt;/p&gt;&lt;p style=&quot;margin: 0px ; margin-left: 8px&quot;&gt;&lt;span style=&quot;background-color: rgb(5 , 38 , 255)&quot;&gt;&lt;font color=&quot;#ebebeb&quot;&gt;Vestimenta&lt;/font&gt;&lt;/span&gt;&lt;/p&gt;&lt;p style=&quot;margin: 0px ; margin-left: 8px&quot;&gt;&lt;span style=&quot;background-color: rgb(5 , 38 , 255)&quot;&gt;&lt;font color=&quot;#ebebeb&quot;&gt;(...)&lt;/font&gt;&lt;/span&gt;&lt;/p&gt;&lt;p style=&quot;margin: 0px ; margin-left: 8px&quot;&gt;&lt;span style=&quot;background-color: rgb(5 , 38 , 255)&quot;&gt;&lt;font color=&quot;#ebebeb&quot;&gt;XXXXXXXXXXXX&lt;/font&gt;&lt;/span&gt;&lt;/p&gt;&lt;p style=&quot;margin: 0px ; margin-left: 8px&quot;&gt;&lt;br&gt;&lt;/p&gt;&lt;p style=&quot;margin: 0px ; margin-left: 8px&quot;&gt;&lt;br&gt;&lt;/p&gt;&lt;p style=&quot;margin: 0px ; margin-left: 8px&quot;&gt;&lt;br&gt;&lt;/p&gt;&lt;p style=&quot;margin: 0px ; margin-left: 8px&quot;&gt;&lt;br&gt;&lt;/p&gt;" style="verticalAlign=top;align=left;overflow=fill;fontSize=12;fontFamily=Helvetica;html=1;fillColor=#b1ddf0;strokeColor=#10739e;" vertex="1" parent="WIyWlLk6GJQsqaUBKTNV-1">
          <mxGeometry x="340" y="10" width="210" height="180" as="geometry" />
        </mxCell>
        <mxCell id="lX6z0dlG5qseJ-_prrLL-4" value="Precio" style="text;strokeColor=#82b366;fillColor=#d5e8d4;align=center;verticalAlign=top;spacingLeft=4;spacingRight=4;overflow=hidden;rotatable=0;points=[[0,0.5],[1,0.5]];portConstraint=eastwest;gradientColor=#97d077;fontStyle=1" vertex="1" parent="WIyWlLk6GJQsqaUBKTNV-1">
          <mxGeometry x="900" y="310" width="78" height="20" as="geometry" />
        </mxCell>
        <mxCell id="lX6z0dlG5qseJ-_prrLL-6" value="Relevancia" style="text;strokeColor=#A50040;fillColor=#d80073;align=center;verticalAlign=top;spacingLeft=4;spacingRight=4;overflow=hidden;rotatable=0;points=[[0,0.5],[1,0.5]];portConstraint=eastwest;fontStyle=1;fontColor=#ffffff;" vertex="1" parent="WIyWlLk6GJQsqaUBKTNV-1">
          <mxGeometry x="690" y="310" width="76" height="20" as="geometry" />
        </mxCell>
        <mxCell id="lX6z0dlG5qseJ-_prrLL-11" value="ORDENAR" style="strokeWidth=2;html=1;shape=mxgraph.flowchart.decision;whiteSpace=wrap;gradientColor=#ffa500;fillColor=#ffcd28;strokeColor=#d79b00;shadow=0;fontStyle=1" vertex="1" parent="WIyWlLk6GJQsqaUBKTNV-1">
          <mxGeometry x="395" y="240" width="100" height="100" as="geometry" />
        </mxCell>
        <mxCell id="lX6z0dlG5qseJ-_prrLL-20" value="" style="edgeStyle=orthogonalEdgeStyle;rounded=0;orthogonalLoop=1;jettySize=auto;html=1;" edge="1" parent="WIyWlLk6GJQsqaUBKTNV-1">
          <mxGeometry relative="1" as="geometry">
            <mxPoint x="382" y="290" as="sourcePoint" />
            <mxPoint x="330" y="310" as="targetPoint" />
            <Array as="points">
              <mxPoint x="330" y="290" />
            </Array>
          </mxGeometry>
        </mxCell>
        <mxCell id="lX6z0dlG5qseJ-_prrLL-21" value="" style="edgeStyle=orthogonalEdgeStyle;rounded=0;orthogonalLoop=1;jettySize=auto;html=1;" edge="1" parent="WIyWlLk6GJQsqaUBKTNV-1">
          <mxGeometry relative="1" as="geometry">
            <mxPoint x="500" y="290" as="sourcePoint" />
            <mxPoint x="550" y="310" as="targetPoint" />
            <Array as="points">
              <mxPoint x="550" y="290" />
              <mxPoint x="550" y="310" />
            </Array>
          </mxGeometry>
        </mxCell>
        <mxCell id="lX6z0dlG5qseJ-_prrLL-24" value="&lt;p style=&quot;margin: 0px ; margin-top: 4px ; text-align: center ; text-decoration: underline&quot;&gt;&lt;b&gt;LISTADOS DE PRODUCTOS&lt;/b&gt;&lt;/p&gt;&lt;hr&gt;&lt;p style=&quot;margin: 0px ; margin-left: 8px&quot;&gt;&lt;font color=&quot;#ebebeb&quot;&gt;&lt;span style=&quot;background-color: rgb(5 , 38 , 255)&quot;&gt;Artículo = 0000324520&lt;/span&gt;&lt;/font&gt;&lt;/p&gt;&lt;p style=&quot;margin: 0px ; margin-left: 8px&quot;&gt;&lt;span style=&quot;background-color: rgb(5 , 38 , 255) ; color: rgb(235 , 235 , 235)&quot;&gt;Artículo = 0008549717&lt;/span&gt;&lt;br&gt;&lt;/p&gt;&lt;p style=&quot;margin: 0px ; margin-left: 8px&quot;&gt;&lt;span style=&quot;color: rgb(235 , 235 , 235) ; background-color: rgb(5 , 38 , 255)&quot;&gt;Artículo = 0000694148&lt;/span&gt;&lt;span style=&quot;background-color: rgb(5 , 38 , 255) ; color: rgb(235 , 235 , 235)&quot;&gt;&lt;br&gt;&lt;/span&gt;&lt;/p&gt;&lt;p style=&quot;margin: 0px ; margin-left: 8px&quot;&gt;&lt;span style=&quot;color: rgb(235 , 235 , 235) ; background-color: rgb(5 , 38 , 255)&quot;&gt;Artículo = 0000456728&lt;/span&gt;&lt;span style=&quot;color: rgb(235 , 235 , 235) ; background-color: rgb(5 , 38 , 255)&quot;&gt;&lt;br&gt;&lt;/span&gt;&lt;/p&gt;&lt;p style=&quot;margin: 0px ; margin-left: 8px&quot;&gt;&lt;span style=&quot;color: rgb(235 , 235 , 235) ; background-color: rgb(5 , 38 , 255)&quot;&gt;Artículo = 0000024267&lt;/span&gt;&lt;span style=&quot;color: rgb(235 , 235 , 235) ; background-color: rgb(5 , 38 , 255)&quot;&gt;&lt;br&gt;&lt;/span&gt;&lt;/p&gt;&lt;p style=&quot;margin: 0px ; margin-left: 8px&quot;&gt;&lt;span style=&quot;color: rgb(235 , 235 , 235) ; background-color: rgb(5 , 38 , 255)&quot;&gt;Artículo = 0000487932&lt;/span&gt;&lt;span style=&quot;color: rgb(235 , 235 , 235) ; background-color: rgb(5 , 38 , 255)&quot;&gt;&lt;br&gt;&lt;/span&gt;&lt;/p&gt;&lt;p style=&quot;margin: 0px ; margin-left: 8px&quot;&gt;&lt;span style=&quot;color: rgb(235 , 235 , 235) ; background-color: rgb(5 , 38 , 255)&quot;&gt;Artículo = 0037206578&lt;/span&gt;&lt;span style=&quot;color: rgb(235 , 235 , 235) ; background-color: rgb(5 , 38 , 255)&quot;&gt;&lt;br&gt;&lt;/span&gt;&lt;/p&gt;&lt;p style=&quot;margin: 0px ; margin-left: 8px&quot;&gt;&lt;span style=&quot;color: rgb(235 , 235 , 235) ; background-color: rgb(5 , 38 , 255)&quot;&gt;Artículo = 0096700670&lt;/span&gt;&lt;span style=&quot;color: rgb(235 , 235 , 235) ; background-color: rgb(5 , 38 , 255)&quot;&gt;&lt;br&gt;&lt;/span&gt;&lt;/p&gt;&lt;p style=&quot;margin: 0px ; margin-left: 8px&quot;&gt;&lt;span style=&quot;color: rgb(235 , 235 , 235) ; background-color: rgb(5 , 38 , 255)&quot;&gt;Artículo = 0083478951&lt;/span&gt;&lt;span style=&quot;color: rgb(235 , 235 , 235) ; background-color: rgb(5 , 38 , 255)&quot;&gt;&lt;br&gt;&lt;/span&gt;&lt;/p&gt;&lt;p style=&quot;margin: 0px ; margin-left: 8px&quot;&gt;&lt;span style=&quot;color: rgb(235 , 235 , 235) ; background-color: rgb(5 , 38 , 255)&quot;&gt;Artículo = XXXXXXXXX&lt;/span&gt;&lt;span style=&quot;color: rgb(235 , 235 , 235) ; background-color: rgb(5 , 38 , 255)&quot;&gt;&lt;br&gt;&lt;/span&gt;&lt;/p&gt;&lt;p style=&quot;margin: 0px ; margin-left: 8px&quot;&gt;&lt;span style=&quot;background-color: rgb(5 , 38 , 255) ; color: rgb(235 , 235 , 235)&quot;&gt;&lt;br&gt;&lt;/span&gt;&lt;/p&gt;&lt;p style=&quot;margin: 0px ; margin-left: 8px&quot;&gt;&lt;br&gt;&lt;/p&gt;&lt;p style=&quot;margin: 0px ; margin-left: 8px&quot;&gt;&lt;br&gt;&lt;/p&gt;&lt;p style=&quot;margin: 0px ; margin-left: 8px&quot;&gt;&lt;br&gt;&lt;/p&gt;&lt;p style=&quot;margin: 0px ; margin-left: 8px&quot;&gt;&lt;br&gt;&lt;/p&gt;" style="verticalAlign=top;align=left;overflow=fill;fontSize=12;fontFamily=Helvetica;html=1;fillColor=#b1ddf0;strokeColor=#10739e;" vertex="1" parent="WIyWlLk6GJQsqaUBKTNV-1">
          <mxGeometry x="730" y="10" width="210" height="180" as="geometry" />
        </mxCell>
        <mxCell id="lX6z0dlG5qseJ-_prrLL-25" value="ORDENAR" style="strokeWidth=2;html=1;shape=mxgraph.flowchart.decision;whiteSpace=wrap;gradientColor=#ffa500;fillColor=#ffcd28;strokeColor=#d79b00;shadow=0;fontStyle=1" vertex="1" parent="WIyWlLk6GJQsqaUBKTNV-1">
          <mxGeometry x="785" y="240" width="100" height="100" as="geometry" />
        </mxCell>
        <mxCell id="lX6z0dlG5qseJ-_prrLL-26" value="" style="edgeStyle=orthogonalEdgeStyle;rounded=0;orthogonalLoop=1;jettySize=auto;html=1;" edge="1" parent="WIyWlLk6GJQsqaUBKTNV-1">
          <mxGeometry relative="1" as="geometry">
            <mxPoint x="834.5" y="190" as="sourcePoint" />
            <mxPoint x="834.5" y="230" as="targetPoint" />
          </mxGeometry>
        </mxCell>
        <mxCell id="lX6z0dlG5qseJ-_prrLL-27" value="Cantidad decreciente" style="text;strokeColor=#B09500;fillColor=#e3c800;align=center;verticalAlign=top;spacingLeft=4;spacingRight=4;overflow=hidden;rotatable=0;points=[[0,0.5],[1,0.5]];portConstraint=eastwest;fontStyle=1;fontColor=#000000;" vertex="1" parent="WIyWlLk6GJQsqaUBKTNV-1">
          <mxGeometry x="495" y="310" width="130" height="20" as="geometry" />
        </mxCell>
        <mxCell id="lX6z0dlG5qseJ-_prrLL-29" value="Alfabéticamente" style="text;strokeColor=#b46504;fillColor=#fad7ac;align=center;verticalAlign=top;spacingLeft=4;spacingRight=4;overflow=hidden;rotatable=0;points=[[0,0.5],[1,0.5]];portConstraint=eastwest;fontStyle=1" vertex="1" parent="WIyWlLk6GJQsqaUBKTNV-1">
          <mxGeometry x="280" y="310" width="110" height="20" as="geometry" />
        </mxCell>
        <mxCell id="lX6z0dlG5qseJ-_prrLL-30" value="A-Z" style="text;strokeColor=#b85450;fillColor=#f8cecc;align=center;verticalAlign=top;spacingLeft=4;spacingRight=4;overflow=hidden;rotatable=0;points=[[0,0.5],[1,0.5]];portConstraint=eastwest;fontStyle=1;gradientColor=#ea6b66;" vertex="1" parent="WIyWlLk6GJQsqaUBKTNV-1">
          <mxGeometry x="260" y="370" width="40" height="20" as="geometry" />
        </mxCell>
        <mxCell id="lX6z0dlG5qseJ-_prrLL-31" value="Z-A" style="text;strokeColor=#996185;fillColor=#e6d0de;align=center;verticalAlign=top;spacingLeft=4;spacingRight=4;overflow=hidden;rotatable=0;points=[[0,0.5],[1,0.5]];portConstraint=eastwest;fontStyle=1;gradientColor=#d5739d;" vertex="1" parent="WIyWlLk6GJQsqaUBKTNV-1">
          <mxGeometry x="355" y="370" width="40" height="20" as="geometry" />
        </mxCell>
        <mxCell id="lX6z0dlG5qseJ-_prrLL-34" value="" style="endArrow=none;html=1;" edge="1" parent="WIyWlLk6GJQsqaUBKTNV-1">
          <mxGeometry width="50" height="50" relative="1" as="geometry">
            <mxPoint x="330.5" y="350" as="sourcePoint" />
            <mxPoint x="330" y="330" as="targetPoint" />
          </mxGeometry>
        </mxCell>
        <mxCell id="lX6z0dlG5qseJ-_prrLL-36" value="" style="edgeStyle=orthogonalEdgeStyle;rounded=0;orthogonalLoop=1;jettySize=auto;html=1;" edge="1" parent="WIyWlLk6GJQsqaUBKTNV-1">
          <mxGeometry relative="1" as="geometry">
            <mxPoint x="330" y="350" as="sourcePoint" />
            <mxPoint x="380" y="370" as="targetPoint" />
            <Array as="points">
              <mxPoint x="380" y="350" />
              <mxPoint x="380" y="370" />
            </Array>
          </mxGeometry>
        </mxCell>
        <mxCell id="lX6z0dlG5qseJ-_prrLL-37" value="" style="edgeStyle=orthogonalEdgeStyle;rounded=0;orthogonalLoop=1;jettySize=auto;html=1;" edge="1" parent="WIyWlLk6GJQsqaUBKTNV-1">
          <mxGeometry relative="1" as="geometry">
            <mxPoint x="332" y="350" as="sourcePoint" />
            <mxPoint x="280" y="370" as="targetPoint" />
            <Array as="points">
              <mxPoint x="280" y="350" />
            </Array>
          </mxGeometry>
        </mxCell>
        <mxCell id="lX6z0dlG5qseJ-_prrLL-38" value="" style="edgeStyle=orthogonalEdgeStyle;rounded=0;orthogonalLoop=1;jettySize=auto;html=1;" edge="1" parent="WIyWlLk6GJQsqaUBKTNV-1">
          <mxGeometry relative="1" as="geometry">
            <mxPoint x="890" y="290" as="sourcePoint" />
            <mxPoint x="940" y="310" as="targetPoint" />
            <Array as="points">
              <mxPoint x="940" y="290" />
              <mxPoint x="940" y="310" />
            </Array>
          </mxGeometry>
        </mxCell>
        <mxCell id="lX6z0dlG5qseJ-_prrLL-39" value="" style="edgeStyle=orthogonalEdgeStyle;rounded=0;orthogonalLoop=1;jettySize=auto;html=1;" edge="1" parent="WIyWlLk6GJQsqaUBKTNV-1">
          <mxGeometry relative="1" as="geometry">
            <mxPoint x="782" y="290" as="sourcePoint" />
            <mxPoint x="730" y="310" as="targetPoint" />
            <Array as="points">
              <mxPoint x="730" y="290" />
            </Array>
          </mxGeometry>
        </mxCell>
      </root>
    </mxGraphModel>
  </diagram>
</mxfile>
